<svg width="18" height="18" viewBox="0 0 18 18" fill="none" xmlns="http://www.w3.org/2000/svg">
<g clip-path="url(#clip0_102_203)">
<path d="M7 17C7.55228 17 8 16.5523 8 16C8 15.4477 7.55228 15 7 15C6.44772 15 6 15.4477 6 16C6 16.5523 6.44772 17 7 17Z" stroke="white" stroke-width="1.91569" stroke-linecap="round" stroke-linejoin="round"/>
<path d="M15 17C15.5523 17 16 16.5523 16 16C16 15.4477 15.5523 15 15 15C14.4477 15 14 15.4477 14 16C14 16.5523 14.4477 17 15 17Z" stroke="white" stroke-width="1.91569" stroke-linecap="round" stroke-linejoin="round"/>
<path d="M1 1H4.09091L6.16182 10.8191C6.23248 11.1567 6.42602 11.46 6.70856 11.6758C6.9911 11.8917 7.34463 12.0063 7.70727 11.9997H15.2182C15.5808 12.0063 15.9344 11.8917 16.2169 11.6758C16.4994 11.46 16.693 11.1567 16.7636 10.8191L18 4.66658H4.86364" stroke="white" stroke-width="1.91569" stroke-linecap="round" stroke-linejoin="round"/>
</g>
<defs>
<clipPath id="clip0_102_203">
<rect width="18" height="18" fill="white"/>
</clipPath>
</defs>
</svg>
