<svg width="224" height="70" viewBox="0 0 224 70" fill="none" xmlns="http://www.w3.org/2000/svg">
<circle cx="35" cy="35" r="35" fill="#1E4497"/>
<path d="M26.7977 52.744C26.804 52.436 27.2943 51.5567 26.0525 51.2578C26.0525 51.2578 25.5934 51.0556 25.3075 50.909C24.9904 50.7464 24.8138 50.6513 24.5128 50.4605C24.1487 50.2297 23.9453 50.0944 23.6187 49.8128C23.3275 49.5616 23.168 49.4122 22.9233 49.1152C22.6286 48.7574 22.4952 48.5283 22.2776 48.1186C22.0405 47.6721 21.9326 47.4053 21.7809 46.9228C21.7144 46.7112 21.6818 46.5908 21.6319 46.3747C21.5521 46.0287 21.538 45.8285 21.4829 45.4778C20.7254 40.6505 21.0856 32.971 21.0856 32.971C21.0856 32.971 21.1485 32.2378 21.2346 31.7752C21.3338 31.2416 21.3807 30.9335 21.5823 30.4298C21.7115 30.1068 21.7914 29.925 21.9796 29.6326C22.2479 29.2158 22.4556 29.0168 22.824 28.6859C23.113 28.4263 23.2932 28.2996 23.6187 28.0879C23.9175 27.8936 24.0958 27.801 24.4134 27.6395C24.8473 27.4188 25.0951 27.298 25.5558 27.1412C26.0103 26.9866 26.2772 26.9356 26.7479 26.8422C27.1139 26.7696 27.3283 26.7779 27.6916 26.6928C27.7695 26.6745 27.8903 26.6429 27.8903 26.6429V23.3543V22.7564C27.8903 22.6567 28.0393 22.3079 28.0393 22.3079C28.0393 22.3079 28.2525 22.0036 28.4367 21.8595C28.7464 21.6172 29.3804 21.5107 29.3804 21.5107C29.3804 21.5107 30.073 21.3398 30.5228 21.2616C30.9623 21.1852 31.2134 21.1591 31.6538 21.1133L31.6652 21.1121C32.2068 21.0558 32.5118 21.0325 33.056 21.0124C33.6375 20.9909 33.9643 21.0016 34.5461 21.0124C35.0895 21.0225 35.3943 21.0301 35.9368 21.0622C36.4225 21.091 36.694 21.1186 37.1786 21.1619C37.7611 21.214 38.0885 21.2375 38.6687 21.3114C39.2919 21.3908 39.6462 21.4177 40.2581 21.5605C40.6111 21.6429 41.1522 21.8097 41.1522 21.8097C41.1522 21.8097 41.6489 22.0588 41.7482 22.2083C41.8475 22.3578 41.9469 22.6567 41.9966 22.9557C42.0462 23.2547 41.9966 24.5004 41.9966 24.5004V26.6429C41.9966 26.6429 42.5738 26.7224 42.9403 26.7924C43.2916 26.8596 43.491 26.8911 43.8343 26.9917C44.2528 27.1143 44.5226 27.2273 44.9271 27.3904C45.2981 27.5399 45.4616 27.6135 45.8211 27.789C46.1803 27.9643 46.3886 28.0566 46.7152 28.2872C47.0045 28.4916 47.1502 28.6328 47.4024 28.8772L47.4106 28.8852C47.6574 29.1244 47.8041 29.255 48.0066 29.5329C48.2167 29.8214 48.4536 30.3302 48.4536 30.3302C48.4536 30.3302 48.851 31.6257 48.9007 32.2236C48.9503 32.8216 49 35.2133 49 35.2133V37.7545L48.9007 40.6943L48.8013 43.0362C48.8013 43.0362 48.7799 45.0585 48.7517 45.2286C48.7234 45.3988 48.6238 45.963 48.5033 46.4245L48.493 46.4639C48.3439 47.035 48.2559 47.3721 48.0066 47.9193C47.7535 48.4747 47.5951 48.7901 47.2119 49.2647C46.7444 49.8435 46.3851 50.0907 45.7715 50.5103C45.2764 50.8489 44.6787 51.1581 44.4304 51.2578C44.182 51.3574 43.6926 51.5402 43.586 52.055C43.5386 52.2836 43.586 52.8024 43.586 52.9021C43.586 53.0017 43.4867 53.3173 43.3873 53.5C43.288 53.6827 42.9585 53.9552 42.6423 54.1976C42.2828 54.4731 42.0584 54.6026 41.6489 54.7955C41.1325 55.0388 40.8059 55.0841 40.2581 55.244L40.2075 55.2587C39.6424 55.4237 39.3092 55.5209 38.7183 55.6426C38.0842 55.7732 37.7229 55.8216 37.0792 55.8917C36.5572 55.9486 36.263 55.9719 35.7382 55.9914C35.2148 56.0108 34.3971 55.9914 34.3971 55.9914L33.205 55.8917L32.1619 55.7422L30.9699 55.4931L29.9268 55.1941L28.8341 54.7955C28.1883 54.5464 27.344 53.8986 27.344 53.8986C27.2943 53.8488 26.8969 53.5 26.7977 52.744Z" fill="#E9C300"/>
<path d="M26.7976 52.7526C26.7976 52.7498 26.7976 52.7469 26.7977 52.744M26.7977 52.744C26.804 52.436 27.2943 51.5567 26.0525 51.2578C26.0525 51.2578 25.5934 51.0556 25.3075 50.909C24.9904 50.7464 24.8138 50.6513 24.5128 50.4605C24.1487 50.2297 23.9453 50.0944 23.6187 49.8128C23.3275 49.5616 23.168 49.4122 22.9233 49.1152C22.6286 48.7574 22.4952 48.5283 22.2776 48.1186C22.0405 47.6721 21.9326 47.4053 21.7809 46.9228C21.7144 46.7112 21.6818 46.5908 21.6319 46.3747C21.5521 46.0287 21.538 45.8285 21.4829 45.4778C20.7254 40.6505 21.0856 32.971 21.0856 32.971C21.0856 32.971 21.1485 32.2378 21.2346 31.7752C21.3338 31.2416 21.3807 30.9335 21.5823 30.4298C21.7115 30.1068 21.7914 29.925 21.9796 29.6326C22.2479 29.2158 22.4556 29.0168 22.824 28.6859C23.113 28.4263 23.2932 28.2996 23.6187 28.0879C23.9175 27.8936 24.0958 27.801 24.4134 27.6395C24.8473 27.4188 25.0951 27.298 25.5558 27.1412C26.0103 26.9866 26.2772 26.9356 26.7479 26.8422C27.1139 26.7696 27.3283 26.7779 27.6916 26.6928C27.7695 26.6745 27.8903 26.6429 27.8903 26.6429C27.8903 26.6429 27.8903 24.6386 27.8903 23.3543C27.8903 23.1208 27.8903 22.856 27.8903 22.7564C27.8903 22.6567 28.0393 22.3079 28.0393 22.3079C28.0393 22.3079 28.2525 22.0036 28.4367 21.8595C28.7464 21.6172 29.3804 21.5107 29.3804 21.5107C29.3804 21.5107 30.073 21.3398 30.5228 21.2616C30.9661 21.1845 31.2177 21.1586 31.6652 21.1121C32.2068 21.0558 32.5118 21.0325 33.056 21.0124C33.6375 20.9909 33.9643 21.0016 34.5461 21.0124C35.0895 21.0225 35.3943 21.0301 35.9368 21.0622C36.4225 21.091 36.694 21.1186 37.1786 21.1619C37.7611 21.214 38.0885 21.2375 38.6687 21.3114C39.2919 21.3908 39.6462 21.4177 40.2581 21.5605C40.6111 21.6429 41.1522 21.8097 41.1522 21.8097C41.1522 21.8097 41.6489 22.0588 41.7482 22.2083C41.8475 22.3578 41.9469 22.6567 41.9966 22.9557C42.0462 23.2547 41.9966 24.5004 41.9966 24.5004V26.6429C41.9966 26.6429 42.5738 26.7224 42.9403 26.7924C43.2916 26.8596 43.491 26.8911 43.8343 26.9917C44.2528 27.1143 44.5226 27.2273 44.9271 27.3904C45.2981 27.5399 45.4616 27.6135 45.8211 27.789C46.1803 27.9643 46.3886 28.0566 46.7152 28.2872C47.0076 28.4938 47.1533 28.6359 47.4106 28.8852C47.6574 29.1244 47.8041 29.255 48.0066 29.5329C48.2167 29.8214 48.4536 30.3302 48.4536 30.3302C48.4536 30.3302 48.851 31.6257 48.9007 32.2236C48.9503 32.8216 49 35.2133 49 35.2133V37.7545L48.9007 40.6943L48.8013 43.0362C48.8013 43.0362 48.7799 45.0585 48.7517 45.2286C48.7234 45.3988 48.6238 45.963 48.5033 46.4245C48.3479 47.0197 48.2616 47.3597 48.0066 47.9193C47.7535 48.4747 47.5951 48.7901 47.2119 49.2647C46.7443 49.8435 46.3851 50.0907 45.7715 50.5103C45.2764 50.8489 44.6787 51.1581 44.4304 51.2578C44.182 51.3574 43.6926 51.5402 43.586 52.055C43.5386 52.2836 43.586 52.8024 43.586 52.9021C43.586 53.0017 43.4867 53.3173 43.3873 53.5C43.288 53.6827 42.9585 53.9552 42.6423 54.1976C42.2828 54.4731 42.0584 54.6026 41.6489 54.7955C41.1325 55.0388 40.8059 55.0841 40.2581 55.244C39.6618 55.4179 39.3267 55.5173 38.7183 55.6426C38.0842 55.7732 37.7229 55.8216 37.0792 55.8917C36.5572 55.9486 36.263 55.9719 35.7382 55.9914C35.2148 56.0108 34.3971 55.9914 34.3971 55.9914L33.205 55.8917L32.1619 55.7422L30.9699 55.4931L29.9268 55.1941L28.8341 54.7955C28.1883 54.5464 27.344 53.8986 27.344 53.8986C27.2943 53.8488 26.8969 53.5 26.7977 52.744Z" stroke="#1F1B10" stroke-width="0.875"/>
<path d="M32.6127 38.6924L32.9401 38.148C32.9401 38.148 33.0337 39.2369 32.9869 39.2864C32.9401 39.3359 31.9579 39.1379 31.9579 39.1379C31.9735 39.1709 32.0514 39.5339 32.0514 39.5339C32.0514 39.5339 32.1476 39.9535 32.145 40.2269C32.142 40.5415 32.1307 40.7338 32.0047 41.0188C31.8728 41.3169 31.537 41.6128 31.4902 41.6623C31.4434 41.7118 31.1377 41.9006 30.8821 41.9593C30.6322 42.0167 30.4784 42.0104 30.2273 41.9593C30.0174 41.9165 29.9 41.8706 29.7128 41.7613C29.508 41.6416 29.4009 41.5499 29.2451 41.3653C29.1135 41.2093 29.0471 41.1098 28.9645 40.9198C28.8774 40.7196 28.8485 40.5942 28.8241 40.3754C28.8049 40.2026 28.8372 40.1002 28.8709 39.9299C28.9127 39.7183 28.9553 39.6217 29.058 39.4349C29.1573 39.2542 29.2226 39.1587 29.3386 38.9894C29.476 38.7891 29.7128 38.4945 29.7128 38.4945C29.7128 38.4945 29.4031 38.3616 29.1983 38.2965C28.8244 38.1775 28.4032 38.0985 28.2161 38.0985C28.029 38.0985 27.8929 38.1218 27.7016 38.1975C27.4548 38.2951 27.1403 38.5935 27.1403 38.5935C27.1403 38.5935 27 38.3003 27 38.0985C27 37.8967 27.0442 37.7778 27.1403 37.6035C27.2445 37.4146 27.3427 37.329 27.5145 37.2075C27.6641 37.1018 27.7584 37.0434 27.9355 37.0095C28.134 36.9716 28.45 37.059 28.45 37.059C28.4938 37.0207 32.6127 38.6924 32.6127 38.6924Z" fill="#1F1B10"/>
<circle cx="1" cy="1" r="1" transform="matrix(-1 0 0 1 31 39)" fill="#D9D9D9"/>
<path d="M37.3873 38.6924L37.0599 38.148C37.0599 38.148 36.9663 39.2369 37.0131 39.2864C37.0599 39.3359 38.0421 39.1379 38.0421 39.1379C38.0265 39.1709 37.9486 39.5339 37.9486 39.5339C37.9486 39.5339 37.8524 39.9535 37.855 40.2269C37.858 40.5415 37.8693 40.7338 37.9953 41.0188C38.1272 41.3169 38.463 41.6128 38.5098 41.6623C38.5566 41.7118 38.8623 41.9006 39.1179 41.9593C39.3678 42.0167 39.5216 42.0104 39.7727 41.9593C39.9826 41.9165 40.1 41.8706 40.2872 41.7613C40.492 41.6416 40.5991 41.5499 40.7549 41.3653C40.8865 41.2093 40.9529 41.1098 41.0355 40.9198C41.1226 40.7196 41.1515 40.5942 41.1759 40.3754C41.1951 40.2026 41.1628 40.1002 41.1291 39.9299C41.0873 39.7183 41.0447 39.6217 40.942 39.4349C40.8427 39.2542 40.7774 39.1587 40.6614 38.9894C40.524 38.7891 40.2872 38.4945 40.2872 38.4945C40.2872 38.4945 40.5969 38.3616 40.8017 38.2965C41.1756 38.1775 41.5968 38.0985 41.7839 38.0985C41.971 38.0985 42.1071 38.1218 42.2984 38.1975C42.5452 38.2951 42.8597 38.5935 42.8597 38.5935C42.8597 38.5935 43 38.3003 43 38.0985C43 37.8967 42.9558 37.7778 42.8597 37.6035C42.7555 37.4146 42.6573 37.329 42.4855 37.2075C42.3359 37.1018 42.2416 37.0434 42.0645 37.0095C41.866 36.9716 41.55 37.059 41.55 37.059C41.5062 37.0207 37.3873 38.6924 37.3873 38.6924Z" fill="#1F1B10"/>
<circle cx="40" cy="40" r="1" fill="#D9D9D9"/>
<path d="M31.3627 46.5792L31 46.7705L31.3627 46.9617C31.3627 46.9617 32.6896 46.9491 33.5391 46.9235L33.5539 46.923C34.2737 46.9013 34.6821 46.889 35.4046 46.847C36.338 46.7927 36.8609 46.7515 37.7882 46.6557C38.4175 46.5907 39.3946 46.4644 39.3946 46.4644L39.4464 46.7322L39.7573 47L39.9646 46.7705C39.9646 46.7705 40.0442 46.5031 39.9646 46.3496C39.8877 46.2013 39.7919 46.118 39.6019 46.0436C39.3516 45.9455 38.8764 46.0436 38.8764 46.0436C38.8764 46.0436 36.6443 46.3594 35.1973 46.4644C33.7058 46.5726 31.3627 46.5792 31.3627 46.5792Z" fill="#1F1B10"/>
<path d="M34.0476 48.4667L34 48.8667L34.1905 49L34.3333 48.9333L34.6667 48.8C34.7968 48.7479 34.8985 48.755 35.0476 48.7333C35.3626 48.6876 35.8571 48.6667 35.8571 48.6667L37.7143 48.6L38 48.2667L37.7143 48H36.381V48.1333C36.381 48.1333 35.3789 47.9401 34.7619 48.1333C34.475 48.2232 34.0476 48.4667 34.0476 48.4667Z" fill="#1F1B10"/>
<path d="M41.4167 44.8375H41.5833L41.5 46.1718L41.4167 46.954L41.5833 47C41.5833 47 41.8438 46.3431 41.9167 45.8957C41.9859 45.4709 42 44.7914 42 44.7914C42 44.7914 41.9703 44.5289 41.9167 44.3773C41.8821 44.2798 41.8604 44.2195 41.7917 44.1473C41.6909 44.0415 41.5965 44.0267 41.4583 44.0092C41.3937 44.0011 41.3551 43.9933 41.2917 44.0092C41.123 44.0515 41 44.3773 41 44.3773L41.4167 44.8375Z" fill="#1F1B10"/>
<path d="M39.521 52.2011C41.2997 51.8847 44 51 44 51V51.7098C44 51.7098 41.2953 52.4978 39.521 52.7471C36.7223 53.1403 35.1042 53.0233 32.2934 52.7471C30.2693 52.5482 27.1527 51.8735 27.1527 51.8735L27 51.4368C27 51.4368 30.076 52.2646 32.0898 52.4741C34.98 52.7748 36.6563 52.7107 39.521 52.2011Z" fill="#1F1B10"/>
<path d="M29 23C29 23 32.4189 23.5084 34.6233 23.4995C36.7318 23.491 40 23 40 23C40 23 38.1611 23.6113 36.9417 23.7992C35.1325 24.078 34.068 24.0556 32.2556 23.7992C30.96 23.616 29 23 29 23Z" fill="#1F1B10" stroke="#1F1B10" stroke-width="0.875"/>
<path d="M29.2188 27.4448C29.2188 27.4448 27.4183 25.9272 28.7208 26.8287C30.3448 27.9528 33.5431 28.2966 33.5431 28.2966C33.5431 28.2966 31.7302 28.1943 30.6088 27.929C28.945 27.5355 29.3661 27.7743 27.9898 26.7494C27.0906 26.0798 29.2188 27.4448 29.2188 27.4448Z" fill="#1F1B10" stroke="#1F1B10" stroke-width="0.875"/>
<path d="M40.9497 27.5723C40.9497 27.5723 42.5698 25.8627 41.376 26.9043C39.8875 28.203 36.7484 28.9018 36.7484 28.9018C36.7484 28.9018 38.538 28.5977 39.6226 28.2088C41.2317 27.632 40.8399 27.9163 42.0934 26.7438C42.9123 25.9779 40.9497 27.5723 40.9497 27.5723Z" fill="#1F1B10" stroke="#1F1B10" stroke-width="0.875"/>
<path d="M23.6091 41.4452C22.1539 40.3646 20.5398 38 20.5398 38C20.5398 38 17.7114 44.316 19.7213 47.4743C20.5732 48.813 21.4302 49.3075 22.7224 50.257C23.8191 51.0627 25.7236 52.0458 25.7236 52.0458V53.9672C25.7236 53.9672 29.0206 55.9328 31.3848 56.4848C34.2596 57.1561 36.089 57.1872 38.9559 56.4848C41.2434 55.9244 44.4126 53.9672 44.4126 53.9672V52.0458C44.4126 52.0458 46.0687 51.2697 47.0045 50.5882C48.5744 49.445 49.4658 48.6473 50.3467 46.9443C51.9618 43.8217 50.0738 38 50.0738 38C50.0738 38 47.9503 40.352 46.2542 41.4452C42.6905 43.7421 39.8524 43.9179 35.6137 43.9628C30.9516 44.0123 27.3132 44.1957 23.6091 41.4452Z" fill="#1E4497" stroke="#1F1B10" stroke-width="0.875"/>
<path d="M24.1394 43.0216C21.4727 41.5712 19 38 19 38C19 38 19.5646 44.9271 21.3308 47.2429C22.0795 48.2244 22.8326 48.587 23.9682 49.2832C24.932 49.874 26.6056 50.5948 26.6056 50.5948V53.6229C26.6056 53.6229 29.5284 55.2175 31.6061 55.6223C34.1324 56.1145 36.4079 56.1372 38.9273 55.6223C40.9375 55.2113 43.0292 53.7856 43.0292 53.7856V50.5948C43.0292 50.5948 44.4846 50.0258 45.3069 49.5261C46.6866 48.6878 47.4699 48.1029 48.244 46.8542C49.6634 44.5647 51 38.6045 51 38.6045C51 38.6045 48.0424 41.2683 44.9394 43.0216C41.8459 44.7696 39.0218 44.6352 35.2969 44.6682C31.1999 44.7044 27.5333 44.8676 24.1394 43.0216Z" fill="#07163A" stroke="#1F1B10" stroke-width="0.875"/>
<path d="M31.3197 45.7507C30.3768 46.0663 29 46.7911 29 46.7911C29 46.7911 30.541 48.0138 31.7063 48.4462C32.7654 48.8392 33.4274 48.8935 34.5576 48.9664C35.6701 49.0382 36.3079 48.9967 37.4089 48.8246C38.4305 48.6648 39.0331 48.5914 39.9703 48.1625C40.8428 47.7631 42 46.7911 42 46.7911C42 46.7911 40.5638 46.0635 39.5836 45.7507C36.5155 44.7714 34.3732 44.7284 31.3197 45.7507Z" fill="#828483" stroke="#1F1B10" stroke-width="0.875"/>
<path d="M31.3197 48.7507C30.3768 49.0663 29 49.7911 29 49.7911C29 49.7911 30.541 51.0138 31.7063 51.4462C32.7654 51.8392 33.4274 51.8935 34.5576 51.9664C35.6701 52.0382 36.3079 51.9967 37.4089 51.8246C38.4305 51.6648 39.0331 51.5914 39.9703 51.1625C40.8428 50.7631 42 49.7911 42 49.7911C42 49.7911 40.5638 49.0635 39.5836 48.7507C36.5155 47.7714 34.3732 47.7284 31.3197 48.7507Z" fill="#828483" stroke="#1F1B10" stroke-width="0.875"/>
<path d="M31.3197 51.7507C30.3768 52.0663 29 52.7911 29 52.7911C29 52.7911 30.541 54.0138 31.7063 54.4462C32.7654 54.8392 33.4274 54.8935 34.5576 54.9664C35.6701 55.0382 36.3079 54.9967 37.4089 54.8246C38.4305 54.6648 39.0331 54.5914 39.9703 54.1625C40.8428 53.7631 42 52.7911 42 52.7911C42 52.7911 40.5638 52.0635 39.5836 51.7507C36.5155 50.7714 34.3732 50.7284 31.3197 51.7507Z" fill="#828483" stroke="#1F1B10" stroke-width="0.875"/>
<path d="M43.1941 49.2906C44.62 47.4023 46.8099 46.1599 48.6942 45.166C50.5784 44.1721 50.0692 47.9489 49.3562 48.3465C48.6432 48.744 41.7681 51.179 43.1941 49.2906Z" fill="#828483" stroke="#1F1B10" stroke-width="0.875"/>
<path d="M27.8059 49.2906C26.38 47.4023 24.1901 46.1599 22.3058 45.166C20.4216 44.1721 20.9308 47.9489 21.6438 48.3465C22.3568 48.744 29.2319 51.179 27.8059 49.2906Z" fill="#828483" stroke="#1F1B10" stroke-width="0.875"/>
<path d="M45.1363 42C45.8902 39.9804 46.6449 36.3529 45 35C45 35 48.3927 35.5294 48.7525 36.0588C49.2702 36.8204 48.8151 38.7059 48.8151 38.7059C48.8151 38.7059 47.7491 39.8903 46.9984 40.6103C46.349 41.233 45.1363 42 45.1363 42Z" fill="#9B8200"/>
<path fill-rule="evenodd" clip-rule="evenodd" d="M34.9645 33.0807C30.6847 33.2571 16.4862 35.0233 16.4862 38.1361C16.4862 41.4209 15.7404 34.28 15.7404 34.28C15.7404 34.28 13.751 33.9974 13.2792 33.066C12.936 32.3885 12.879 31.7861 13.2792 31.138C13.7948 30.3029 15.7404 30.2096 15.7404 30.2096C15.7404 30.2096 14.8307 26.0706 15.7404 23.5686C16.518 21.4299 17.6202 20.4143 19.2604 18.903C19.3532 18.8174 19.4478 18.7303 19.5441 18.6413C22.2007 16.1864 24.2425 15.2519 27.7481 14.1425C30.0461 13.4153 33.4505 13.1267 34.8234 13.0355C34.8278 13.012 34.83 13 34.83 13C34.83 13 34.9338 13.005 35.1201 13.0168C35.3189 13.005 35.43 13 35.43 13C35.43 13 35.4323 13.0129 35.4365 13.0382C36.7496 13.1323 39.9213 13.4224 42.2043 14.1425C45.7212 15.2519 47.7696 16.1864 50.4348 18.6413C50.5314 18.7303 50.6262 18.8174 50.7194 18.903C52.3649 20.4143 53.4706 21.4299 54.2508 23.5686C55.1634 26.0706 54.2508 30.2096 54.2508 30.2096C54.2508 30.2096 56.2026 30.3029 56.7199 31.138C57.1214 31.7861 57.0642 32.3885 56.7199 33.066C56.2465 33.9974 54.2508 34.28 54.2508 34.28C54.2508 34.28 53.5025 41.4209 53.5025 38.1361C53.5025 35.0233 39.2582 33.2571 34.9645 33.0807Z" fill="#828483"/>
<path d="M34.9645 33.0807L34.9825 32.6435L34.9645 32.6428L34.9465 32.6435L34.9645 33.0807ZM15.7404 34.28L16.1755 34.2345L16.1401 33.8948L15.8019 33.8468L15.7404 34.28ZM13.2792 33.066L12.8889 33.2637H12.8889L13.2792 33.066ZM13.2792 31.138L12.9069 30.9081H12.9069L13.2792 31.138ZM15.7404 30.2096L15.7614 30.6466L16.2789 30.6218L16.1677 30.1157L15.7404 30.2096ZM15.7404 23.5686L16.1516 23.7181L15.7404 23.5686ZM19.2604 18.903L18.964 18.5812L19.2604 18.903ZM19.5441 18.6413L19.841 18.9626H19.841L19.5441 18.6413ZM27.7481 14.1425L27.6161 13.7254V13.7254L27.7481 14.1425ZM34.8234 13.0355L34.8524 13.472L35.1914 13.4495L35.2535 13.1155L34.8234 13.0355ZM34.83 13L34.8511 12.563L34.4705 12.5447L34.4001 12.9192L34.83 13ZM35.1201 13.0168L35.0924 13.4534L35.1192 13.4551L35.1459 13.4535L35.1201 13.0168ZM35.43 13L35.8613 12.9262L35.7962 12.5456L35.4104 12.5629L35.43 13ZM35.4365 13.0382L35.0051 13.111L35.0623 13.45L35.4052 13.4746L35.4365 13.0382ZM42.2043 14.1425L42.3359 13.7253L42.2043 14.1425ZM50.4348 18.6413L50.1384 18.9631L50.1384 18.9631L50.4348 18.6413ZM50.7194 18.903L50.4234 19.2252L50.7194 18.903ZM54.2508 23.5686L54.6618 23.4187L54.6618 23.4186L54.2508 23.5686ZM54.2508 30.2096L53.8235 30.1154L53.7118 30.6219L54.2299 30.6466L54.2508 30.2096ZM56.7199 31.138L57.0918 30.9076L56.7199 31.138ZM56.7199 33.066L57.1099 33.2642L56.7199 33.066ZM54.2508 34.28L54.1894 33.8468L53.8512 33.8947L53.8156 34.2344L54.2508 34.28ZM16.9237 38.1361C16.9237 37.9264 17.0419 37.6682 17.3925 37.3618C17.7404 37.0578 18.2653 36.7541 18.9456 36.4592C20.3027 35.8708 22.177 35.3599 24.2098 34.9355C28.2707 34.0878 32.8664 33.605 34.9825 33.5178L34.9465 32.6435C32.7829 32.7327 28.1394 33.2213 24.031 34.079C21.9793 34.5073 20.0365 35.0326 18.5976 35.6564C17.8799 35.9675 17.2621 36.3138 16.8168 36.7029C16.3742 37.0897 16.0487 37.5676 16.0487 38.1361H16.9237ZM15.7404 34.28C15.3053 34.3254 15.3053 34.3255 15.3053 34.3255C15.3053 34.3256 15.3053 34.3257 15.3053 34.3258C15.3053 34.326 15.3054 34.3264 15.3054 34.3268C15.3055 34.3277 15.3056 34.329 15.3058 34.3307C15.3062 34.3342 15.3067 34.3394 15.3074 34.3461C15.3089 34.3597 15.311 34.3796 15.3137 34.4055C15.3192 34.4573 15.3272 34.5326 15.3375 34.6274C15.3579 34.8168 15.3871 35.0837 15.4222 35.3936C15.4923 36.0129 15.5859 36.8066 15.6798 37.4986C15.7267 37.8444 15.774 38.1678 15.8189 38.4326C15.8618 38.686 15.9074 38.9175 15.9551 39.059C15.967 39.0945 15.9866 39.1477 16.0171 39.1998C16.032 39.2252 16.0607 39.2702 16.1075 39.314C16.1524 39.356 16.2527 39.4325 16.4034 39.4373C16.5667 39.4425 16.6822 39.3614 16.7424 39.2989C16.7976 39.2418 16.8259 39.1828 16.839 39.1526C16.8661 39.0898 16.8786 39.027 16.8854 38.9873C16.9131 38.8255 16.9237 38.5406 16.9237 38.1361H16.0487C16.0487 38.5527 16.036 38.7632 16.0229 38.8397C16.0195 38.8595 16.0208 38.8402 16.0356 38.8059C16.0425 38.7899 16.0645 38.7414 16.1129 38.6912C16.1666 38.6356 16.2752 38.5577 16.4313 38.5627C16.575 38.5673 16.668 38.6401 16.7053 38.675C16.7446 38.7118 16.7655 38.7463 16.7724 38.7581C16.787 38.783 16.7898 38.7961 16.7843 38.7797C16.762 38.7136 16.7261 38.5491 16.6816 38.2864C16.639 38.0352 16.5932 37.7226 16.5468 37.381C16.4543 36.6985 16.3615 35.9123 16.2917 35.2952C16.2568 34.987 16.2277 34.7217 16.2074 34.5334C16.1973 34.4393 16.1893 34.3645 16.1838 34.3132C16.1811 34.2876 16.179 34.2679 16.1776 34.2546C16.1769 34.2479 16.1764 34.2429 16.1761 34.2395C16.1759 34.2378 16.1757 34.2366 16.1757 34.2357C16.1756 34.2353 16.1756 34.235 16.1756 34.2348C16.1756 34.2347 16.1755 34.2346 16.1755 34.2346C16.1755 34.2345 16.1755 34.2345 15.7404 34.28ZM12.8889 33.2637C13.0572 33.5959 13.3435 33.8407 13.6315 34.02C13.9234 34.2018 14.2507 34.3372 14.5473 34.437C14.8459 34.5374 15.1265 34.6059 15.3316 34.6493C15.4346 34.6711 15.5196 34.6868 15.5796 34.6971C15.6097 34.7023 15.6335 34.7062 15.6503 34.7088C15.6588 34.7101 15.6654 34.7111 15.6702 34.7119C15.6726 34.7122 15.6745 34.7125 15.676 34.7127C15.6767 34.7128 15.6773 34.7129 15.6778 34.713C15.678 34.713 15.6782 34.713 15.6784 34.7131C15.6785 34.7131 15.6786 34.7131 15.6787 34.7131C15.6788 34.7131 15.6789 34.7131 15.7404 34.28C15.8019 33.8468 15.802 33.8468 15.8021 33.8468C15.8021 33.8468 15.8022 33.8469 15.8022 33.8469C15.8022 33.8469 15.8023 33.8469 15.8023 33.8469C15.8023 33.8469 15.8022 33.8469 15.8019 33.8468C15.8015 33.8468 15.8005 33.8466 15.7992 33.8464C15.7964 33.846 15.7918 33.8453 15.7855 33.8443C15.773 33.8424 15.7537 33.8392 15.7284 33.8349C15.6778 33.8262 15.6037 33.8125 15.5128 33.7933C15.3301 33.7546 15.0839 33.6943 14.8262 33.6076C14.5665 33.5203 14.308 33.4105 14.0941 33.2773C13.8764 33.1417 13.7371 33.0019 13.6695 32.8683L12.8889 33.2637ZM12.9069 30.9081C12.6674 31.2961 12.5538 31.691 12.563 32.1009C12.5721 32.5038 12.6992 32.8892 12.8889 33.2637L13.6695 32.8683C13.516 32.5654 13.443 32.3108 13.4378 32.0811C13.4328 31.8583 13.4908 31.628 13.6514 31.3678L12.9069 30.9081ZM15.7404 30.2096C15.7194 29.7726 15.7193 29.7726 15.7192 29.7727C15.7192 29.7727 15.7191 29.7727 15.719 29.7727C15.7188 29.7727 15.7186 29.7727 15.7184 29.7727C15.7179 29.7727 15.7173 29.7727 15.7166 29.7728C15.7152 29.7729 15.7133 29.773 15.7109 29.7731C15.7062 29.7733 15.6997 29.7737 15.6915 29.7742C15.675 29.7752 15.6516 29.7768 15.6221 29.7791C15.5633 29.7836 15.4798 29.791 15.3786 29.8026C15.177 29.8257 14.9005 29.8658 14.6044 29.9345C14.3104 30.0026 13.9833 30.102 13.6872 30.2485C13.3958 30.3928 13.0963 30.6014 12.9069 30.9081L13.6514 31.3678C13.7199 31.257 13.857 31.1408 14.0754 31.0327C14.2891 30.927 14.5451 30.8464 14.802 30.7869C15.0567 30.7278 15.2988 30.6924 15.4781 30.6719C15.5673 30.6617 15.6399 30.6553 15.6894 30.6515C15.7142 30.6496 15.7331 30.6483 15.7454 30.6476C15.7515 30.6472 15.756 30.6469 15.7587 30.6468C15.76 30.6467 15.7609 30.6467 15.7614 30.6466C15.7616 30.6466 15.7617 30.6466 15.7617 30.6466C15.7617 30.6466 15.7617 30.6466 15.7616 30.6466C15.7616 30.6466 15.7615 30.6466 15.7615 30.6466C15.7614 30.6466 15.7614 30.6466 15.7404 30.2096ZM15.3292 23.4191C14.8401 24.7644 14.8486 26.5054 14.9633 27.8641C15.0214 28.5523 15.1084 29.1599 15.1809 29.5956C15.2172 29.8137 15.2499 29.9892 15.2737 30.1109C15.2856 30.1718 15.2953 30.2192 15.3021 30.2517C15.3055 30.268 15.3082 30.2806 15.31 30.2893C15.3109 30.2937 15.3117 30.297 15.3122 30.2994C15.3125 30.3006 15.3127 30.3015 15.3128 30.3022C15.3129 30.3026 15.3129 30.3029 15.313 30.3031C15.313 30.3032 15.313 30.3033 15.3131 30.3034C15.3131 30.3035 15.3131 30.3036 15.7404 30.2096C16.1677 30.1157 16.1677 30.1158 16.1677 30.1158C16.1677 30.1158 16.1677 30.1158 16.1677 30.1158C16.1677 30.1158 16.1677 30.1157 16.1677 30.1155C16.1676 30.1152 16.1675 30.1147 16.1673 30.1139C16.1669 30.1122 16.1664 30.1096 16.1656 30.1061C16.1641 30.099 16.1618 30.088 16.1587 30.0733C16.1526 30.0441 16.1436 30.0001 16.1324 29.9429C16.1101 29.8285 16.0788 29.6611 16.044 29.452C15.9744 29.0334 15.8908 28.4499 15.8352 27.7906C15.7224 26.4542 15.731 24.8747 16.1516 23.7181L15.3292 23.4191ZM18.964 18.5812C17.3226 20.0936 16.1465 21.1714 15.3292 23.4191L16.1516 23.7181C16.8896 21.6883 17.9177 20.7351 19.5569 19.2247L18.964 18.5812ZM19.2472 18.32C19.1511 18.4088 19.0568 18.4957 18.964 18.5812L19.5569 19.2247C19.6497 19.1392 19.7444 19.0519 19.841 18.9626L19.2472 18.32ZM27.6161 13.7254C24.0731 14.8467 21.9665 15.8071 19.2472 18.32L19.841 18.9626C22.4348 16.5657 24.4119 15.6572 27.8801 14.5597L27.6161 13.7254ZM34.7944 12.5989C33.4252 12.6899 29.971 12.9802 27.6161 13.7254L27.8801 14.5597C30.1212 13.8504 33.4758 13.5634 34.8524 13.472L34.7944 12.5989ZM35.2535 13.1155C35.2557 13.1039 35.2573 13.0952 35.2584 13.0894C35.259 13.0865 35.2594 13.0843 35.2596 13.0829C35.2598 13.0822 35.2599 13.0816 35.2599 13.0813C35.26 13.0811 35.26 13.081 35.26 13.0809C35.26 13.0809 35.26 13.0808 35.26 13.0808C35.26 13.0808 35.26 13.0808 35.26 13.0808C35.26 13.0808 35.26 13.0808 35.26 13.0808C35.26 13.0808 35.26 13.0808 35.26 13.0808C35.26 13.0808 35.26 13.0808 35.26 13.0808C35.26 13.0808 35.26 13.0808 34.83 13C34.4001 12.9192 34.4001 12.9192 34.4001 12.9192C34.4001 12.9192 34.4001 12.9192 34.4001 12.9192C34.4001 12.9192 34.4001 12.9192 34.4001 12.9192C34.4001 12.9192 34.4001 12.9192 34.4001 12.9192C34.4001 12.9192 34.4001 12.9192 34.4001 12.9192C34.4001 12.9193 34.4001 12.9193 34.4 12.9194C34.4 12.9195 34.4 12.9196 34.4 12.9198C34.3999 12.9202 34.3998 12.9208 34.3996 12.9216C34.3993 12.9232 34.3989 12.9255 34.3983 12.9285C34.3972 12.9346 34.3955 12.9436 34.3933 12.9554L35.2535 13.1155ZM34.83 13C34.809 13.437 34.809 13.437 34.809 13.437C34.809 13.437 34.809 13.437 34.809 13.437C34.809 13.437 34.809 13.437 34.809 13.437C34.809 13.437 34.809 13.437 34.809 13.437C34.809 13.437 34.8091 13.437 34.8091 13.437C34.8093 13.437 34.8095 13.437 34.8099 13.437C34.8105 13.4371 34.8116 13.4371 34.8131 13.4372C34.816 13.4373 34.8206 13.4376 34.8266 13.4379C34.8387 13.4385 34.857 13.4395 34.881 13.4408C34.9292 13.4435 35.0005 13.4476 35.0924 13.4534L35.1477 12.5802C35.0533 12.5742 34.9797 12.5699 34.9293 12.5671C34.9042 12.5657 34.8849 12.5647 34.8717 12.564C34.8651 12.5637 34.8601 12.5635 34.8566 12.5633C34.8549 12.5632 34.8536 12.5631 34.8527 12.5631C34.8522 12.5631 34.8518 12.563 34.8516 12.563C34.8514 12.563 34.8513 12.563 34.8512 12.563C34.8512 12.563 34.8512 12.563 34.8511 12.563C34.8511 12.563 34.8511 12.563 34.8511 12.563C34.8511 12.563 34.8511 12.563 34.8511 12.563C34.8511 12.563 34.8511 12.563 34.83 13ZM35.43 13C35.4104 12.5629 35.4104 12.5629 35.4104 12.5629C35.4104 12.5629 35.4104 12.5629 35.4104 12.5629C35.4104 12.5629 35.4104 12.5629 35.4103 12.5629C35.4103 12.5629 35.4103 12.5629 35.4102 12.5629C35.4102 12.563 35.41 12.563 35.4099 12.563C35.4096 12.563 35.4093 12.563 35.4088 12.563C35.4078 12.5631 35.4064 12.5631 35.4045 12.5632C35.4009 12.5634 35.3955 12.5636 35.3885 12.564C35.3745 12.5646 35.3539 12.5657 35.327 12.5671C35.2733 12.5698 35.1947 12.5741 35.0942 12.58L35.1459 13.4535C35.2442 13.4477 35.3206 13.4436 35.3722 13.4409C35.398 13.4396 35.4176 13.4386 35.4306 13.438C35.4371 13.4376 35.442 13.4374 35.4452 13.4373C35.4468 13.4372 35.448 13.4371 35.4487 13.4371C35.4491 13.4371 35.4494 13.4371 35.4495 13.4371C35.4496 13.4371 35.4496 13.4371 35.4497 13.4371C35.4497 13.4371 35.4497 13.4371 35.4497 13.4371C35.4497 13.4371 35.4497 13.4371 35.4497 13.4371C35.4497 13.4371 35.4497 13.4371 35.4497 13.4371C35.4497 13.4371 35.4497 13.4371 35.43 13ZM35.8679 12.9653C35.8657 12.9526 35.8641 12.9429 35.863 12.9363C35.8624 12.9331 35.862 12.9306 35.8617 12.9289C35.8616 12.928 35.8615 12.9274 35.8614 12.927C35.8614 12.9267 35.8613 12.9266 35.8613 12.9265C35.8613 12.9264 35.8613 12.9263 35.8613 12.9263C35.8613 12.9263 35.8613 12.9263 35.8613 12.9263C35.8613 12.9263 35.8613 12.9263 35.8613 12.9263C35.8613 12.9263 35.8613 12.9262 35.8613 12.9262C35.8613 12.9262 35.8613 12.9262 35.8613 12.9262C35.8613 12.9262 35.8613 12.9262 35.43 13C34.9988 13.0738 34.9988 13.0738 34.9988 13.0738C34.9988 13.0738 34.9988 13.0738 34.9988 13.0738C34.9988 13.0738 34.9988 13.0738 34.9988 13.0738C34.9988 13.0738 34.9988 13.0738 34.9988 13.0738C34.9988 13.0738 34.9988 13.0738 34.9988 13.0738C34.9988 13.0738 34.9988 13.0738 34.9988 13.0739C34.9988 13.0739 34.9989 13.0741 34.9989 13.0742C34.9989 13.0746 34.999 13.0752 34.9992 13.0759C34.9994 13.0775 34.9998 13.0798 35.0004 13.0829C35.0014 13.0892 35.003 13.0986 35.0051 13.111L35.8679 12.9653ZM35.4052 13.4746C36.7191 13.5688 39.8441 13.8568 42.0727 14.5598L42.3359 13.7253C39.9986 12.988 36.7801 12.6959 35.4678 12.6018L35.4052 13.4746ZM42.0727 14.5598C45.5523 15.6574 47.536 16.566 50.1384 18.9631L50.7312 18.3195C48.0032 15.8067 45.8901 14.8465 42.3359 13.7253L42.0727 14.5598ZM50.1384 18.9631C50.2353 19.0524 50.3303 19.1397 50.4234 19.2252L51.0153 18.5807C50.9222 18.4952 50.8275 18.4083 50.7312 18.3195L50.1384 18.9631ZM50.4234 19.2252C52.068 20.7356 53.0994 21.6889 53.8397 23.7185L54.6618 23.4186C53.8418 21.1708 52.6619 20.0931 51.0153 18.5807L50.4234 19.2252ZM53.8397 23.7185C54.2616 24.8749 54.2702 26.4542 54.1571 27.7904C54.1012 28.4497 54.0174 29.0332 53.9476 29.4518C53.9127 29.6608 53.8813 29.8282 53.8589 29.9426C53.8476 29.9998 53.8386 30.0438 53.8325 30.0731C53.8295 30.0877 53.8271 30.0987 53.8256 30.1058C53.8248 30.1094 53.8243 30.1119 53.8239 30.1136C53.8237 30.1144 53.8236 30.1149 53.8236 30.1152C53.8235 30.1154 53.8235 30.1155 53.8235 30.1155C53.8235 30.1155 53.8235 30.1155 53.8235 30.1155C53.8235 30.1155 53.8235 30.1154 54.2508 30.2096C54.678 30.3038 54.678 30.3038 54.678 30.3037C54.678 30.3036 54.6781 30.3035 54.6781 30.3034C54.6781 30.3032 54.6782 30.3029 54.6783 30.3025C54.6784 30.3018 54.6786 30.3009 54.6789 30.2997C54.6794 30.2973 54.6801 30.2939 54.6811 30.2896C54.6829 30.2809 54.6856 30.2683 54.689 30.252C54.6958 30.2194 54.7055 30.172 54.7175 30.1112C54.7414 29.9895 54.7742 29.8139 54.8106 29.5959C54.8834 29.1601 54.9707 28.5525 55.0289 27.8643C55.144 26.5055 55.1526 24.7642 54.6618 23.4187L53.8397 23.7185ZM54.2508 30.2096C54.2299 30.6466 54.2298 30.6466 54.2297 30.6466C54.2297 30.6466 54.2296 30.6466 54.2296 30.6466C54.2295 30.6466 54.2295 30.6466 54.2295 30.6466C54.2295 30.6466 54.2296 30.6466 54.2298 30.6466C54.2303 30.6467 54.2312 30.6467 54.2326 30.6468C54.2353 30.6469 54.2398 30.6472 54.2459 30.6476C54.2583 30.6483 54.2772 30.6496 54.3021 30.6515C54.3518 30.6553 54.4247 30.6617 54.5142 30.6719C54.6942 30.6925 54.9372 30.7279 55.1928 30.7869C55.4507 30.8465 55.7077 30.9271 55.9223 31.033C56.1417 31.1412 56.2793 31.2575 56.348 31.3684L57.0918 30.9076C56.9018 30.6009 56.6015 30.3924 56.3094 30.2483C56.0126 30.1018 55.6846 30.0025 55.3898 29.9344C55.0929 29.8658 54.8156 29.8256 54.6134 29.8026C54.5119 29.791 54.4282 29.7836 54.3692 29.7791C54.3396 29.7768 54.3162 29.7752 54.2997 29.7742C54.2914 29.7737 54.2849 29.7733 54.2802 29.7731C54.2778 29.773 54.2759 29.7729 54.2745 29.7728C54.2738 29.7727 54.2732 29.7727 54.2727 29.7727C54.2725 29.7727 54.2723 29.7727 54.2721 29.7727C54.272 29.7727 54.2719 29.7727 54.2718 29.7726C54.2717 29.7726 54.2716 29.7726 54.2508 30.2096ZM56.348 31.3684C56.5091 31.6285 56.5672 31.8586 56.5622 32.0811C56.557 32.3105 56.4838 32.5649 56.3299 32.8678L57.1099 33.2642C57.3003 32.8897 57.4279 32.5041 57.437 32.1009C57.4463 31.6908 57.3322 31.2956 57.0918 30.9076L56.348 31.3684ZM56.3299 32.8678C56.262 33.0013 56.1223 33.1412 55.9037 33.2769C55.6889 33.4102 55.4295 33.5201 55.1688 33.6075C54.9101 33.6942 54.663 33.7545 54.4797 33.7932C54.3884 33.8124 54.3141 33.8261 54.2633 33.8348C54.2379 33.8392 54.2185 33.8423 54.2059 33.8443C54.1996 33.8453 54.195 33.846 54.1922 33.8464C54.1908 33.8466 54.1899 33.8467 54.1894 33.8468C54.1892 33.8468 54.1891 33.8468 54.1891 33.8468C54.1891 33.8468 54.1891 33.8468 54.1892 33.8468C54.1892 33.8468 54.1893 33.8468 54.1893 33.8468C54.1893 33.8468 54.1894 33.8468 54.2508 34.28C54.3121 34.7132 54.3122 34.7131 54.3123 34.7131C54.3123 34.7131 54.3124 34.7131 54.3125 34.7131C54.3127 34.7131 54.3129 34.713 54.3132 34.713C54.3136 34.7129 54.3143 34.7128 54.315 34.7127C54.3164 34.7125 54.3184 34.7122 54.3208 34.7119C54.3256 34.7112 54.3322 34.7102 54.3407 34.7089C54.3575 34.7062 54.3815 34.7024 54.4116 34.6972C54.4718 34.6868 54.557 34.6711 54.6603 34.6493C54.866 34.6059 55.1474 34.5375 55.4468 34.4371C55.7443 34.3374 56.0725 34.202 56.3651 34.0203C56.6539 33.8411 56.9411 33.5964 57.1099 33.2642L56.3299 32.8678ZM54.2508 34.28C53.8156 34.2344 53.8156 34.2344 53.8156 34.2344C53.8156 34.2345 53.8156 34.2346 53.8156 34.2347C53.8156 34.2349 53.8155 34.2352 53.8155 34.2356C53.8154 34.2364 53.8153 34.2377 53.8151 34.2394C53.8148 34.2427 53.8142 34.2478 53.8135 34.2544C53.8121 34.2677 53.81 34.2874 53.8073 34.3131C53.8019 34.3643 53.7938 34.4391 53.7836 34.5333C53.7632 34.7215 53.7341 34.9869 53.6991 35.2951C53.6291 35.9121 53.536 36.6983 53.4431 37.3808C53.3967 37.7224 53.3506 38.035 53.3079 38.2862C53.2633 38.5489 53.2273 38.7133 53.205 38.7793C53.1994 38.7956 53.2023 38.7825 53.2169 38.7575C53.2239 38.7457 53.2449 38.7112 53.2843 38.6745C53.3217 38.6396 53.4145 38.5673 53.5577 38.5627C53.7132 38.5578 53.8217 38.6351 53.8755 38.6907C53.9241 38.7408 53.9461 38.7893 53.9531 38.8054C53.968 38.8398 53.9693 38.8592 53.9659 38.8394C53.9528 38.7631 53.94 38.5528 53.94 38.1361H53.065C53.065 38.5406 53.0757 38.8256 53.1035 38.9876C53.1103 39.0273 53.1229 39.0902 53.1501 39.1531C53.1633 39.1834 53.1917 39.2424 53.247 39.2994C53.3074 39.3618 53.4228 39.4424 53.5855 39.4373C53.7358 39.4325 53.8359 39.3564 53.8809 39.3145C53.9279 39.2707 53.9567 39.2258 53.9716 39.2004C54.0022 39.1482 54.0219 39.0949 54.0339 39.0594C54.0818 38.9179 54.1275 38.6862 54.1706 38.4328C54.2156 38.168 54.2631 37.8446 54.3101 37.4988C54.4043 36.8067 54.4983 36.013 54.5686 35.3937C54.6037 35.0838 54.633 34.8169 54.6536 34.6275C54.6638 34.5328 54.6719 34.4574 54.6774 34.4057C54.6801 34.3798 54.6823 34.3598 54.6837 34.3463C54.6844 34.3395 54.6849 34.3344 54.6853 34.3309C54.6855 34.3292 54.6856 34.3278 54.6857 34.3269C54.6858 34.3265 54.6858 34.3262 54.6858 34.3259C54.6858 34.3258 54.6859 34.3257 54.6859 34.3257C54.6859 34.3256 54.6859 34.3256 54.2508 34.28ZM53.94 38.1361C53.94 37.567 53.6132 37.089 53.1694 36.7025C52.7228 36.3135 52.1031 35.9672 51.3833 35.6562C49.94 35.0325 47.9911 34.5072 45.9328 34.0789C41.8113 33.2213 37.153 32.7327 34.9825 32.6435L34.9466 33.5178C37.0697 33.6051 41.6804 34.0878 45.7545 34.9356C47.794 35.36 49.6745 35.871 51.0362 36.4594C51.7189 36.7544 52.2456 37.0582 52.5947 37.3623C52.9467 37.6689 53.065 37.9269 53.065 38.1361H53.94Z" fill="#1F1B10"/>
<path d="M18.5064 37C18.5064 37 28.3788 31.8151 34.9277 31.8415C41.3936 31.8675 51.1319 37 51.1319 37L52 33.8171C52 33.8171 41.7609 27.9811 34.9277 28C28.1496 28.0188 18 33.8171 18 33.8171L18.5064 37Z" fill="#3E3D4B" stroke="#1F1B10" stroke-width="0.875"/>
<path d="M18.5064 37C18.5064 37 28.3788 33.5434 34.9277 33.561C41.3936 33.5784 51.1319 37 51.1319 37L52 34.878C52 34.878 41.7609 30.9874 34.9277 31C28.1496 31.0125 18 34.878 18 34.878L18.5064 37Z" fill="#1D4493" stroke="#1F1B10" stroke-width="0.875"/>
<path d="M17.0341 49.8981C17.9439 50.1007 18.6815 50.0248 19.4137 49.4545C20.242 48.8094 20.2868 47.9184 20.5119 46.9834C20.7559 45.9696 21 43.1816 21 42.1678C21 41.2807 20.8841 38.5113 20.7559 37.7958C20.6278 37.0803 20.3187 36.1416 19.9628 35.5147C19.5947 34.8664 19.3015 34.473 18.7425 33.994C18.3194 33.6314 18.1647 33.4772 17.6443 33.297C16.7291 32.9802 16.363 32.9168 15.3868 33.1069C14.6041 33.2593 14.2264 34.1012 13.9225 34.8811C13.6185 35.6609 13.7394 37.0354 13.7394 37.0354C13.7394 37.0354 13.7755 38.02 13.9225 38.6195C14.0698 39.2204 14.6791 39.3939 14.6546 40.0135C14.6318 40.5901 14.1123 40.7383 13.9225 41.2807C13.6771 41.9819 13.7598 42.4359 13.7394 43.1816C13.7313 43.4784 13.8456 43.6663 13.7394 43.942C13.6268 44.2344 13.3315 44.2335 13.1903 44.5122C12.9684 44.9502 12.9066 45.3818 13.1903 45.7795C13.5732 46.3164 14.8377 45.9696 14.8377 45.9696C14.8377 45.9696 14.7647 46.6344 14.8377 47.1735C14.9101 47.7087 14.9455 48.0349 15.2037 48.5041C15.6437 49.3033 16.1674 49.705 17.0341 49.8981Z" fill="#383838" stroke="#1F1B10" stroke-width="0.875"/>
<path d="M52.9659 49.8981C52.0561 50.1007 51.3185 50.0248 50.5863 49.4545C49.758 48.8094 49.7132 47.9184 49.4881 46.9834C49.2441 45.9696 49 43.1816 49 42.1678C49 41.2807 49.1159 38.5113 49.2441 37.7958C49.3722 37.0803 49.6813 36.1416 50.0372 35.5147C50.4053 34.8664 50.6985 34.473 51.2575 33.994C51.6806 33.6314 51.8353 33.4772 52.3557 33.297C53.2709 32.9802 53.637 32.9168 54.6132 33.1069C55.3959 33.2593 55.7736 34.1012 56.0775 34.8811C56.3815 35.6609 56.2606 37.0354 56.2606 37.0354C56.2606 37.0354 56.2245 38.02 56.0775 38.6195C55.9302 39.2204 55.3209 39.3939 55.3454 40.0135C55.3682 40.5901 55.8877 40.7383 56.0775 41.2807C56.3229 41.9819 56.2402 42.4359 56.2606 43.1816C56.2687 43.4784 56.1544 43.6663 56.2606 43.942C56.3732 44.2344 56.6685 44.2335 56.8097 44.5122C57.0316 44.9502 57.0934 45.3818 56.8097 45.7795C56.4268 46.3164 55.1623 45.9696 55.1623 45.9696C55.1623 45.9696 55.2353 46.6344 55.1623 47.1735C55.0899 47.7087 55.0545 48.0349 54.7963 48.5041C54.3563 49.3033 53.8326 49.705 52.9659 49.8981Z" fill="#383838" stroke="#1F1B10" stroke-width="0.875"/>
<path d="M26.0891 22.234C25.4697 22.4276 24.8959 22.4958 24.4773 22.4636C24.2667 22.4474 24.1185 22.4075 24.0279 22.3635C23.9802 22.3404 23.9592 22.3219 23.951 22.3128C23.9524 22.3007 23.9589 22.2737 23.9845 22.2276C24.0331 22.1401 24.1312 22.0233 24.2942 21.8903C24.6182 21.6261 25.1275 21.3559 25.7469 21.1624C26.3663 20.9688 26.9401 20.9006 27.3587 20.9328C27.5693 20.949 27.7175 20.9889 27.8081 21.0329C27.8558 21.056 27.8768 21.0745 27.885 21.0836C27.8836 21.0957 27.8771 21.1227 27.8515 21.1688C27.8029 21.2563 27.7047 21.3731 27.5418 21.5061C27.2178 21.7703 26.7085 22.0405 26.0891 22.234ZM23.9464 22.3066C23.9464 22.3066 23.9469 22.3072 23.9475 22.3086L23.9464 22.3066ZM23.9506 22.3182C23.9509 22.3197 23.9509 22.3205 23.9508 22.3205L23.9506 22.3182ZM27.8896 21.0898C27.8896 21.0898 27.8891 21.0892 27.8885 21.0878L27.8896 21.0898ZM27.8854 21.0782C27.8851 21.0767 27.8851 21.0759 27.8852 21.0759L27.8854 21.0782Z" fill="#D9D9D9" stroke="#1F1B10" stroke-width="0.875"/>
<path d="M27.5612 19.5701C26.6913 19.875 25.8691 19.9926 25.252 19.9514C24.9427 19.9307 24.7068 19.8715 24.5466 19.7939C24.3887 19.7173 24.3327 19.6385 24.3128 19.5828C24.2928 19.5271 24.2861 19.4309 24.36 19.2732C24.4351 19.113 24.5807 18.9202 24.8079 18.7114C25.261 18.2952 25.9746 17.8744 26.8446 17.5695C27.7145 17.2647 28.5367 17.147 29.1537 17.1882C29.4631 17.2089 29.6989 17.2681 29.8592 17.3457C30.0171 17.4223 30.0731 17.5011 30.093 17.5568C30.113 17.6125 30.1197 17.7087 30.0457 17.8664C29.9707 18.0266 29.8251 18.2194 29.5979 18.4282C29.1448 18.8444 28.4311 19.2652 27.5612 19.5701Z" fill="#D9D9D9" stroke="#1F1B10" stroke-width="0.875"/>
<rect x="16.4375" y="44.4375" width="2.125" height="4.125" rx="1.0625" fill="#828483" stroke="#1F1B10" stroke-width="0.875"/>
<rect x="50.4375" y="44.4375" width="2.125" height="4.125" rx="1.0625" fill="#828483" stroke="#1F1B10" stroke-width="0.875"/>
<path d="M80.912 34C79.808 33.976 78.92 33.808 78.248 33.496C77.576 33.16 77.072 32.62 76.736 31.876C76.4 31.132 76.232 30.136 76.232 28.888V13.66C76.232 12.388 76.604 11.356 77.348 10.564C78.092 9.748 79.076 9.34 80.3 9.34C81.74 9.34 82.796 9.604 83.468 10.132C84.164 10.66 84.512 11.728 84.512 13.336V27.772H90.668C92.06 27.772 93.032 27.976 93.584 28.384C94.16 28.792 94.448 29.632 94.448 30.904C94.448 32.2 94.124 33.04 93.476 33.424C92.828 33.808 91.772 34 90.308 34H80.912ZM112.858 19.384C114.13 19.384 115.018 19.588 115.522 19.996C116.05 20.404 116.314 21.1 116.314 22.084C116.314 22.9 116.002 23.488 115.378 23.848C114.778 24.184 113.83 24.352 112.534 24.352H106.702V28.168L114.514 28.204C115.858 28.204 116.818 28.408 117.394 28.816C117.994 29.2 118.294 29.896 118.294 30.904C118.294 32.056 117.946 32.86 117.25 33.316C116.578 33.772 115.546 34 114.154 34H102.49C101.074 34 100.03 33.628 99.3583 32.884C98.7103 32.116 98.3863 30.772 98.3863 28.852V13.66C98.3863 10.78 99.7543 9.34 102.49 9.34H114.154C115.546 9.34 116.578 9.556 117.25 9.988C117.946 10.42 118.294 11.2 118.294 12.328C118.294 13.384 117.994 14.128 117.394 14.56C116.818 14.968 115.858 15.172 114.514 15.172H106.666V19.384H112.858ZM134.885 15.388C134.885 14.644 134.393 14.272 133.409 14.272C132.401 14.272 131.537 14.836 130.817 15.964C130.097 17.092 129.737 18.976 129.737 21.616C129.737 24.064 130.145 25.852 130.961 26.98C131.801 28.084 132.785 28.636 133.913 28.636C134.273 28.636 134.597 28.564 134.885 28.42C135.197 28.276 135.449 28.06 135.641 27.772C135.833 27.484 135.929 27.136 135.929 26.728C135.353 26.728 134.849 26.62 134.417 26.404C134.009 26.188 133.709 25.924 133.517 25.612C133.325 25.276 133.229 24.916 133.229 24.532C133.229 23.668 133.457 23.02 133.913 22.588C134.369 22.156 135.149 21.94 136.253 21.94H140.609C142.001 21.94 143.081 22.24 143.849 22.84C144.617 23.44 145.001 24.496 145.001 26.008C145.001 28.216 143.945 30.148 141.833 31.804C139.721 33.436 137.213 34.252 134.309 34.252C131.645 34.252 129.269 33.772 127.181 32.812C125.117 31.852 123.473 30.424 122.249 28.528C121.049 26.608 120.449 24.34 120.449 21.724C120.449 17.836 121.625 14.764 123.977 12.508C126.329 10.252 129.449 9.124 133.337 9.124C134.873 9.124 136.253 9.244 137.477 9.484C138.701 9.7 139.709 10 140.501 10.384C141.317 10.768 141.989 11.236 142.517 11.788C143.069 12.316 143.453 12.88 143.669 13.48C143.909 14.08 144.029 14.704 144.029 15.352C144.029 15.808 143.957 16.252 143.813 16.684C143.669 17.092 143.405 17.512 143.021 17.944C142.661 18.352 142.097 18.688 141.329 18.952C140.561 19.216 139.637 19.348 138.557 19.348C136.973 19.348 135.965 19.12 135.533 18.664C135.101 18.184 134.885 17.092 134.885 15.388ZM160.402 28.96C161.218 28.96 161.914 28.6 162.49 27.88C163.09 27.16 163.51 26.272 163.75 25.216C164.014 24.16 164.146 23.032 164.146 21.832C164.146 20.608 164.014 19.456 163.75 18.376C163.486 17.272 163.054 16.336 162.454 15.568C161.878 14.8 161.194 14.416 160.402 14.416C159.634 14.416 158.962 14.8 158.386 15.568C157.81 16.336 157.378 17.272 157.09 18.376C156.802 19.48 156.658 20.632 156.658 21.832C156.658 23.032 156.79 24.16 157.054 25.216C157.342 26.272 157.774 27.16 158.35 27.88C158.95 28.6 159.634 28.96 160.402 28.96ZM166.774 32.812C164.878 33.748 162.742 34.216 160.366 34.216C158.014 34.216 155.89 33.748 153.994 32.812C152.122 31.852 150.622 30.424 149.494 28.528C148.366 26.632 147.802 24.4 147.802 21.832C147.802 17.944 148.966 14.86 151.294 12.58C153.646 10.276 156.682 9.124 160.402 9.124C164.122 9.124 167.158 10.276 169.51 12.58C171.862 14.86 173.038 17.944 173.038 21.832C173.038 24.4 172.462 26.632 171.31 28.528C170.182 30.424 168.67 31.852 166.774 32.812ZM86.312 39.088C89.168 39.088 91.604 39.676 93.62 40.852C95.636 42.028 96.644 43.276 96.644 44.596C96.644 44.956 96.56 45.268 96.392 45.532C96.248 45.772 96.056 45.952 95.816 46.072C95.6 46.168 95.36 46.216 95.096 46.216C94.664 46.216 94.016 46 93.152 45.568C92.288 45.112 91.328 44.668 90.272 44.236C89.216 43.78 88.244 43.552 87.356 43.552C85.94 43.552 85.232 44.128 85.232 45.28C85.232 45.64 85.34 45.988 85.556 46.324C85.796 46.636 86.168 46.972 86.672 47.332C87.176 47.668 87.668 47.968 88.148 48.232C88.628 48.496 89.288 48.856 90.128 49.312C90.968 49.744 91.676 50.128 92.252 50.464C94.1 51.52 95.396 52.528 96.14 53.488C96.884 54.448 97.256 55.552 97.256 56.8C97.256 61.768 93.908 64.252 87.212 64.252C85.892 64.252 84.608 64.12 83.36 63.856C82.136 63.592 81.056 63.244 80.12 62.812C79.208 62.38 78.392 61.9 77.672 61.372C76.976 60.844 76.448 60.304 76.088 59.752C75.728 59.2 75.548 58.684 75.548 58.204C75.548 57.676 75.716 57.232 76.052 56.872C76.412 56.488 76.928 56.296 77.6 56.296C78.104 56.296 79.316 56.62 81.236 57.268C83.156 57.892 84.704 58.204 85.88 58.204C86.96 58.204 87.5 57.832 87.5 57.088C87.5 56.872 87.452 56.68 87.356 56.512C87.284 56.32 87.14 56.14 86.924 55.972C86.732 55.78 86.504 55.612 86.24 55.468C86 55.3 85.652 55.096 85.196 54.856C84.764 54.616 84.32 54.376 83.864 54.136C83.432 53.896 82.856 53.584 82.136 53.2C81.416 52.816 80.72 52.432 80.048 52.048C79.16 51.544 78.392 50.92 77.744 50.176C77.12 49.432 76.664 48.7 76.376 47.98C76.088 47.236 75.944 46.552 75.944 45.928C75.944 43.912 76.844 42.268 78.644 40.996C80.444 39.724 83 39.088 86.312 39.088ZM115.952 49.384C117.224 49.384 118.112 49.588 118.616 49.996C119.144 50.404 119.408 51.1 119.408 52.084C119.408 52.9 119.096 53.488 118.472 53.848C117.872 54.184 116.924 54.352 115.628 54.352H109.796V58.168L117.608 58.204C118.952 58.204 119.912 58.408 120.488 58.816C121.088 59.2 121.388 59.896 121.388 60.904C121.388 62.056 121.04 62.86 120.344 63.316C119.672 63.772 118.64 64 117.248 64H105.584C104.168 64 103.124 63.628 102.452 62.884C101.804 62.116 101.48 60.772 101.48 58.852V43.66C101.48 40.78 102.848 39.34 105.584 39.34H117.248C118.64 39.34 119.672 39.556 120.344 39.988C121.04 40.42 121.388 41.2 121.388 42.328C121.388 43.384 121.088 44.128 120.488 44.56C119.912 44.968 118.952 45.172 117.608 45.172H109.76V49.384H115.952ZM140.14 49.384C141.412 49.384 142.3 49.588 142.804 49.996C143.332 50.404 143.596 51.1 143.596 52.084C143.596 52.9 143.284 53.488 142.66 53.848C142.06 54.184 141.112 54.352 139.816 54.352H133.984V58.168L141.796 58.204C143.14 58.204 144.1 58.408 144.676 58.816C145.276 59.2 145.576 59.896 145.576 60.904C145.576 62.056 145.228 62.86 144.532 63.316C143.86 63.772 142.828 64 141.436 64H129.772C128.356 64 127.312 63.628 126.64 62.884C125.992 62.116 125.668 60.772 125.668 58.852V43.66C125.668 40.78 127.036 39.34 129.772 39.34H141.436C142.828 39.34 143.86 39.556 144.532 39.988C145.228 40.42 145.576 41.2 145.576 42.328C145.576 43.384 145.276 44.128 144.676 44.56C144.1 44.968 143.14 45.172 141.796 45.172H133.948V49.384H140.14ZM166.415 52.156C167.639 52.3 168.755 52.924 169.763 54.028C170.771 55.108 171.275 56.5 171.275 58.204C171.275 59.86 171.155 61.096 170.915 61.912C170.675 62.704 170.267 63.256 169.691 63.568C169.115 63.856 168.239 64 167.063 64C166.127 64 165.347 63.868 164.723 63.604C164.123 63.34 163.679 62.956 163.391 62.452C163.103 61.924 162.959 61.252 162.959 60.436C162.959 59.38 162.911 58.504 162.815 57.808C162.743 57.088 162.635 56.524 162.491 56.116C162.371 55.684 162.179 55.36 161.915 55.144C161.651 54.928 161.387 54.796 161.123 54.748C160.883 54.676 160.547 54.64 160.115 54.64H158.207V58.636C158.207 60.556 157.835 61.936 157.091 62.776C156.347 63.592 155.255 64 153.815 64C152.423 64 151.391 63.616 150.719 62.848C150.071 62.056 149.747 60.736 149.747 58.888V43.876C149.747 42.364 150.023 41.236 150.575 40.492C151.151 39.724 152.075 39.34 153.347 39.34C154.091 39.34 154.703 39.388 155.183 39.484C155.687 39.58 156.167 39.76 156.623 40.024C157.103 40.264 157.451 40.66 157.667 41.212C157.907 41.74 158.027 42.424 158.027 43.264C158.027 44.008 158.015 44.848 157.991 45.784C157.991 46.696 157.991 47.344 157.991 47.728C157.991 48.04 158.063 48.304 158.207 48.52C158.375 48.736 158.615 48.916 158.927 49.06C159.263 49.18 159.671 49.24 160.151 49.24C161.183 49.24 161.867 48.832 162.203 48.016C162.563 47.2 162.743 45.532 162.743 43.012C162.743 41.764 163.079 40.84 163.751 40.24C164.423 39.64 165.503 39.34 166.991 39.34C168.599 39.34 169.679 39.652 170.231 40.276C170.783 40.9 171.059 42.016 171.059 43.624C171.059 46.264 170.591 48.316 169.655 49.78C168.743 51.22 167.663 52.012 166.415 52.156ZM190.272 49.384C191.544 49.384 192.432 49.588 192.936 49.996C193.464 50.404 193.728 51.1 193.728 52.084C193.728 52.9 193.416 53.488 192.792 53.848C192.192 54.184 191.244 54.352 189.948 54.352H184.116V58.168L191.928 58.204C193.272 58.204 194.232 58.408 194.808 58.816C195.408 59.2 195.708 59.896 195.708 60.904C195.708 62.056 195.36 62.86 194.664 63.316C193.992 63.772 192.96 64 191.568 64H179.904C178.488 64 177.444 63.628 176.772 62.884C176.124 62.116 175.8 60.772 175.8 58.852V43.66C175.8 40.78 177.168 39.34 179.904 39.34H191.568C192.96 39.34 193.992 39.556 194.664 39.988C195.36 40.42 195.708 41.2 195.708 42.328C195.708 43.384 195.408 44.128 194.808 44.56C194.232 44.968 193.272 45.172 191.928 45.172H184.08V49.384H190.272ZM213.488 46.504C213.488 45.352 213.068 44.56 212.228 44.128C211.388 43.696 209.972 43.48 207.98 43.48V49.708C209.852 49.708 211.232 49.48 212.12 49.024C213.032 48.544 213.488 47.704 213.488 46.504ZM207.98 58.6C207.98 62.2 206.576 64 203.768 64C202.352 64 201.308 63.628 200.636 62.884C199.988 62.116 199.664 60.772 199.664 58.852V43.66C199.664 42.268 200.036 41.212 200.78 40.492C201.548 39.748 202.544 39.376 203.768 39.376H211.328C214.28 39.376 216.668 40.072 218.492 41.464C220.316 42.832 221.228 44.596 221.228 46.756C221.228 48.388 220.88 49.672 220.184 50.608C219.512 51.52 218.42 52.192 216.908 52.624C218.06 52.696 219.128 53.26 220.112 54.316C221.096 55.348 221.588 56.644 221.588 58.204C221.588 59.788 221.432 61.012 221.12 61.876C220.832 62.716 220.412 63.28 219.86 63.568C219.308 63.856 218.528 64 217.52 64C216.104 64 215.06 63.712 214.388 63.136C213.74 62.536 213.416 61.636 213.416 60.436C213.416 58.948 213.272 57.808 212.984 57.016C212.696 56.2 212.324 55.672 211.868 55.432C211.412 55.192 210.776 55.072 209.96 55.072L207.98 55.108V58.6Z" fill="#1E4497"/>
</svg>
